<svg xmlns="http://www.w3.org/2000/svg" xmlns:xlink="http://www.w3.org/1999/xlink" version="1.1" id="Layer_1" x="0px" y="0px" width="195" height="34" viewBox="0 0 2350 383" enable-background="new 0 0 2350 383" xml:space="preserve">
<path fill="#000" opacity="1.000000" stroke="none" d="M1 7H40L166 317 290 7H321V378H290V46L157 378H146L17 62V378H1z"/>
<path fill="#000" opacity="1.000000" stroke="none" d="M1425.5 384C1419.2 383.3 1413.3 382.6 1407.5 382.1 1373.5 378.8 1341.4 369.6 1312.5 350.9 1271.6 324.6 1247.3 286.9 1238.6 239.3 1228.6 183.8 1237.5 131.7 1270 84.9 1302.7 38 1348.5 12 1405 5 1449.5-.6 1492.2 5.7 1531.6 27.8 1582.8 56.4 1613.1 100.5 1623.8 157.7 1631.4 198.6 1628 238.9 1611.3 277.2 1588.9 328.7 1548.8 359.8 1495.6 375 1477.6 380.1 1459.1 382.4 1440.2 383.6 1435.3 384 1430.6 384 1425.5 384M1569.6 125C1560.8 98.6 1547.7 74.6 1526.8 55.6 1490.3 22.6 1446.9 14.6 1400 23.7 1355.7 32.4 1325.1 59.8 1304.9 99.2 1285.6 136.7 1279.1 176.7 1282.8 218.5 1286 254.6 1298.1 287.3 1321.4 315.4 1365.3 368.3 1440.2 383.3 1498.5 350.7 1534.4 330.6 1557.1 299.4 1569.9 260.9 1584.8 216 1583.5 170.8 1569.6 125z"/>
<path fill="#000" opacity="1.000000" stroke="none" d="M2351 288.5C2349.6 295.3 2348.6 301.6 2346.7 307.8 2334.6 346.4 2307.7 370.1 2269.1 378.6 2219.8 389.5 2174.2 379.6 2130.5 345L2142.3 309.4C2159.6 338.8 2178.8 356.3 2206.7 362.3 2228.5 367 2250.3 367.4 2271.6 359.3 2326.1 338.6 2326.1 278.3 2300 248.1 2287.1 233.2 2270.5 223.4 2253.3 214.4 2236.5 205.6 2219.4 197.3 2202.8 188.1 2185.7 178.8 2170.3 167.2 2159.1 150.9 2125.4 101.7 2142.6 37.9 2197 13.9 2237.7-3.7 2282.9 1.3 2329 30L2315.5 59.9C2295 25.6 2266.2 16.7 2231.6 20.6 2218.5 22.1 2206.3 26.1 2195.6 34 2183.4 43.1 2176.5 55.4 2175.1 70.4 2172.8 95.4 2180.6 116.6 2199.6 133.5 2211.9 144.5 2226.3 152.2 2240.8 159.6 2261 169.8 2281.6 179.4 2301.2 190.7 2322.5 203 2339 220.2 2346.3 244.5 2348.2 250.7 2349.1 257.2 2350.7 263.8 2351 272 2351 280 2351 288.5z"/>
<path fill="#000" opacity="1.000000" stroke="none" d="M1931.9 22.1C1959.1 36.3 1978.1 57.1 1983.5 87.4 1991.4 131.2 1976.4 183.2 1914 203L2021 378H1972L1869 203C1906.6 190.9 1931.2 173.1 1941.4 140.8 1950.5 112 1949 83.7 1930.1 58.5 1918.2 42.7 1901.5 33.8 1882.9 28.3 1863.5 22.6 1844 22 1824 22 1823 22 1823 22 1821 22V378H1779V7L1862.3 7.1C1886.4 7.2 1909.7 11.2 1931.9 22.1z"/>
<path fill="#000" opacity="1.000000" stroke="none" d="M488 378H472L625 7H634L786 378H739L615 64z"/>
<path fill="#000" opacity="1.000000" stroke="none" d="M1153 7 1021 200V377H986V205L845.6 7H891L1013 187.1 1136 7z"/>
</svg>