<?xml version="1.0" encoding="UTF-8" standalone="no"?>
<svg
   xmlns:dc="http://purl.org/dc/elements/1.1/"
   xmlns:cc="http://creativecommons.org/ns#"
   xmlns:rdf="http://www.w3.org/1999/02/22-rdf-syntax-ns#"
   xmlns:svg="http://www.w3.org/2000/svg"
   xmlns="http://www.w3.org/2000/svg"
   viewBox="0 0 2263.7732 465.67999"
   height="465.67999"
   width="2263.7732"
   xml:space="preserve"
   id="svg2"
   version="1.1"><metadata
     id="metadata8"><rdf:RDF><cc:Work
         rdf:about=""><dc:format>image/svg+xml</dc:format><dc:type
           rdf:resource="http://purl.org/dc/dcmitype/StillImage" /></cc:Work></rdf:RDF></metadata><defs
     id="defs6" /><g
     transform="matrix(1.3333333,0,0,-1.3333333,0,465.68)"
     id="g10"><g
       transform="scale(0.1)"
       id="g12"><path
         id="path14"
         style="fill:#1d1b19;fill-opacity:1;fill-rule:nonzero;stroke:none"
         d="m 7503.58,1731.57 c 247.79,45.65 484.15,152.79 632.84,327.64 80.18,94.28 134.87,208.25 152.12,342.85 l 2.98,24.8 -0.03,-0.01 v 0.01 l -4.33,-0.36 -100.21,-8.32 -1.59,-13.96 -0.3,-2.62 c -38.35,-337.61 -452.26,-592.1 -963.19,-592.1 -66.31,0 -133.31,4.75 -199.55,14.34 -1.08,0.16 -2.15,0.29 -3.23,0.45 -3.37,0.49 -6.72,1.05 -10.09,1.57 -4.11,0.64 -8.22,1.25 -12.33,1.92 -0.19,0.03 -0.38,0.07 -0.58,0.1 -402.35,66.29 -769.26,313.68 -769.27,771.23 0,171.29 51.43,313.1 136.82,427.02 140.69,187.67 373.64,299.58 621.26,342.54 11.37,1.97 22.76,3.85 34.19,5.54 1.05,0.15 2.11,0.28 3.17,0.43 66.26,9.6 133.28,14.36 199.61,14.36 4.68,0 9.26,-0.11 13.92,-0.14 25.67,-0.16 51,-0.68 75.75,-1.72 0.1,0 0.2,-0.01 0.3,-0.02 438.47,-18.65 730.66,-175.89 826.92,-447.44 l 2.58,-7.44 2.56,-7.44 0.03,0.01 v -0.01 l 103.87,8.56 -4.37,14.43 -2.89,9.62 c -15.08,49.53 -35.62,95.75 -61.08,138.78 -151.87,256.79 -484.87,396.37 -957.58,396.37 -646.92,0 -1098.75,-367.35 -1098.75,-893.48 0,-481.59 379.01,-830.23 939.73,-885.51 3.7,-0.37 7.36,-0.78 11.09,-1.12 2.25,-0.21 4.53,-0.36 6.79,-0.56 26.63,-2.31 53.64,-4.01 81.06,-5 1.14,-0.04 2.29,-0.05 3.43,-0.09 18.71,-0.63 37.57,-0.98 56.63,-0.98 h 0.01 0.01 c 92.79,0 188.06,8.5 281.7,25.75" /><path
         id="path16"
         style="fill:#1d1b19;fill-opacity:1;fill-rule:nonzero;stroke:none"
         d="m 7498.64,711.379 h 1213.62 v 92.43 H 7498.64 V 1332.9 h 1269.3 v 92.55 h -1361.95 -0.03 V 29.7305 h 0.03 1374.35 v 92.6605 h -1281.7 v 588.988" /><path
         id="path18"
         style="fill:#1d1b19;fill-opacity:1;fill-rule:nonzero;stroke:none"
         d="M 9108.37,756.961 V 1332.9 h 831.02 c 27.19,0 52.87,-0.67 77.21,-2 0.8,-0.04 1.7,-0.06 2.5,-0.11 80.8,-4.58 145.6,-16.75 196.4,-37.39 101.3,-41.23 146,-116.44 146,-233.7 0,-167.731 -99.2,-262.751 -309.5,-292.489 -12.6,-1.781 -25.8,-3.262 -39.2,-4.582 -38.19,-3.75 -79.56,-5.668 -124.38,-5.668 z M 10424.4,429.629 c 0,55.953 -10,104.711 -30,146.203 -10.6,22.078 -23.9,42.188 -40.2,60.008 -20.9,21.051 -46.1,38.18 -76,52.051 -25,11.558 -53.2,20.879 -85.6,27.98 67.1,21 123.3,51.539 165.6,90.348 54.9,51.48 85.6,119.121 93.7,205.611 0.2,2.66 0.5,5.26 0.7,7.96 0.1,0.67 0.1,1.38 0.1,2.06 0.9,12.26 1.4,24.85 1.4,37.85 0,0.01 0,0.02 0,0.03 0,0.01 0,0.02 0,0.03 0,239.12 -146.5,355.57 -459.79,364.99 -13.82,0.41 -27.83,0.7 -42.29,0.7 H 9016 9015.94 V 29.7305 h 0.06 92.37 V 664.309 h 758.75 c 418.98,0 464.38,-87.489 464.38,-273.028 0,-80.461 5.9,-200 20.6,-280.422 5.6,-30.359 12.4,-55.1871 20.6,-70.2184 l 5.9,-10.9101 h 102.2 0.1 L 10459.3,62 c -24.1,36.1602 -34.9,236.742 -34.9,367.629" /><path
         id="path20"
         style="fill:#1d1b19;fill-opacity:1;fill-rule:nonzero;stroke:none"
         d="m 7192.14,1344.62 v 80.83 H 4361.13 v -92.55 h 0.03 702.81 V 29.7305 h 0.03 92.51 V 1332.9 h 1885.14 l -658.75,-611.002 -658.78,-611 V 29.7305 h 0.03 1493.48 V 122.391 H 5874.37 L 7192.14,1344.62" /><path
         id="path22"
         style="fill:#1d1b19;fill-opacity:1;fill-rule:nonzero;stroke:none"
         d="m 1357.55,630.648 c -65.66,51.954 -161.86,88.094 -289.55,108.981 l -548.055,94.062 -22.543,3.868 C 191.855,889.32 152.59,997.301 152.59,1085.48 c 0,106.46 56.984,180.91 175.691,225.67 92.332,34.81 221.992,51.66 391.199,51.66 15.918,0 31.422,-0.17 46.528,-0.5 468.072,-10.34 547.932,-178.29 563.252,-342.68 l 1.78,-20.431 h 0.02 v -0.058 l 88.06,7.559 3.62,0.3 -0.61,10.05 -0.59,10.05 c -17.71,292.26 -244.96,428.25 -714.829,428.25 h -0.016 c -0.007,0 -0.011,0 -0.015,0 -214.5,0 -376.16,-30.72 -484.192,-91.81 -108.047,-61.08 -162.4685,-152.51 -162.4685,-273.93 0,-84.61 26.6758,-152.829 82.7075,-207.001 50.125,-48.449 123.738,-85.679 223.066,-113.218 38.941,-10.789 81.824,-20.11 128.766,-28.039 l 532.601,-89.661 c 241.37,-39.511 344.41,-114.711 344.41,-251.921 0,-57.399 -19.09,-134.211 -102.15,-196.668 C 1186.35,140.641 1039.3,92.5391 783.43,92.5391 546.441,92.5391 374.688,124.141 261.734,191.148 148.789,258.16 94.6484,360.57 92.8516,502.191 l -0.1133,11.188 -0.082,11.203 H 92.625 v 0 L 46.3281,520.73 0,516.891 0.28125,497.25 C 1.47266,444.98 8.62891,396.898 21.8047,352.969 55.3945,240.98 128.301,156.141 241.121,97.6797 367.211,32.3516 543.191,0 770.605,0 c 0,0 0.008,0 0.02,0 0,0 0.004,0 0.012,0 573.203,0 693.623,219.75 693.623,404.031 0,94.918 -35.29,170.149 -106.71,226.617" /><path
         id="path24"
         style="fill:#1d1b19;fill-opacity:1;fill-rule:nonzero;stroke:none"
         d="m 12475.6,1742.56 v 103.74 h -1583.2 v 737.97 h 1499.2 v 103.39 h -1499.2 v 664.25 h 1567.5 v 103.68 H 10788.7 V 1742.56 h 1686.9 v 0" /><path
         id="path26"
         style="fill:#1d1b19;fill-opacity:1;fill-rule:nonzero;stroke:none"
         d="M 3961.67,1425.45 H 3861.35 L 3597.52,787.809 3333.68,150.199 2772.94,1425.45 h -0.03 -95.04 -0.03 L 2117.05,150.199 1589.46,1425.45 h -0.03 -100.38 -0.03 l 574.05,-1382.868 2.73,-6.4218 2.7,-6.4297 h 0.03 95.38 0.03 L 2725.46,1302.25 2988.47,705.891 3286.64,29.7305 h 0.03 95.44 0.03 l 289.75,697.8515 289.78,697.868" /><path
         id="path28"
         style="fill:#1d1b19;fill-opacity:1;fill-rule:nonzero;stroke:none"
         d="m 13127.4,561.211 h -869.6 l 433.1,759.129 379.6,-660.219 z m -390.7,864.239 h -92.2 L 11899,122.391 h -1082.9 v 1303.059 0 h -92.4 -0.1 V 29.7305 h 0.1 1229.2 v 0 l 251.3,438.8205 h 976.7 l 251.4,-438.8205 h 107.3 0.1 l -797.1,1385.4395 -5.9,10.28" /><path
         id="path30"
         style="fill:#1d1b19;fill-opacity:1;fill-rule:nonzero;stroke:none"
         d="m 14416.6,2199.41 c 0,27.5 -2.5,53.64 -7.4,78.45 0,0.21 0,0.43 -0.1,0.64 -1.1,5.8 -2.4,11.51 -3.9,17.17 -0.1,0.43 -0.2,0.88 -0.3,1.32 -1.3,5.07 -2.7,10.05 -4.3,15 -0.3,0.98 -0.5,2 -0.8,2.99 -1,3.09 -2.1,6.11 -3.2,9.16 -1,2.77 -1.9,5.58 -2.9,8.32 -0.5,1.38 -1.1,2.72 -1.7,4.09 -1.7,4.33 -3.4,8.65 -5.3,12.88 0,0.07 -0.1,0.14 -0.1,0.2 -60,133.61 -210.4,218.83 -455.2,258.98 l -704.8,121.07 c -379,64.12 -429.9,193.23 -429.9,311.37 0,111.4 40.7,250.49 324.9,313.76 1.2,0.26 2.3,0.54 3.5,0.8 1.7,0.38 3.5,0.73 5.3,1.1 95,20.29 216.5,32.29 371.8,32.29 633.1,0 738.4,-216.78 758.1,-428.89 l 1,-10.43 0.9,-9.55 v 0.01 -0.01 l 51.5,4.4 51.4,4.39 -1.4,19.74 c -0.7,11.17 -1.6,22.15 -2.8,32.94 -36.4,334.62 -315.6,490.96 -874.8,490.96 -526.4,0 -793.4,-150.24 -793.4,-446.45 0,-177.89 102.2,-280.07 237.5,-342.45 90.4,-41.71 195.5,-65.66 294.8,-82.43 l 657.7,-110.45 c 379,-62.17 430,-195.12 430,-316.77 0,-7.75 -0.3,-15.39 -0.8,-22.92 -15.7,-233.48 -273.9,-361.59 -730.8,-361.59 -73.7,0 -142.2,2.46 -205.9,7.46 -445.4,34.99 -648.6,194.31 -652.3,503.63 l -0.5,21.88 v -0.01 0.01 l -32.5,-2.75 -71.4,-6.04 0.5,-18.94 c 2,-86.17 17.5,-162.9 46.1,-230.54 107.8,-254.12 404.7,-378.38 900.1,-378.38 22,0 43.4,0.27 64.3,0.78 648.3,15.95 787.1,274.64 787.1,492.81" /><path
         id="path32"
         style="fill:#1d1b19;fill-opacity:1;fill-rule:nonzero;stroke:none"
         d="m 3839.52,3366.76 540.51,-939.55 29.53,-51.33 H 3274.65 Z M 2783.7,1730.16 h 141.83 l 310.43,541.64 h 1217.86 l 310.2,-541.64 h 0.03 136.59 0.03 l -317.43,551.54 -682.77,1186.41 h -122.1 L 3100.02,2282.82 2783.7,1730.16" /><path
         id="path34"
         style="fill:#1d1b19;fill-opacity:1;fill-rule:nonzero;stroke:none"
         d="m 16080.2,3004.25 c 0,-133.24 -61.4,-229.98 -153.5,-293.82 -94.4,-65.34 -221,-96.2 -347.1,-96.2 -246.6,0 -495,120.33 -495,390.02 0,269.41 248.4,389.91 495,389.92 249.2,-0.01 500.6,-120.51 500.6,-389.92 z m -500.6,-488.53 v 0 c 122.8,0 235.4,24.8 329.2,71.01 45.4,22.33 86.4,49.61 122,81.63 l 19.6,18.03 17.1,19.29 c 20.9,23.59 38.8,48.97 53.9,75.77 37.6,66.53 57.2,142.14 57.2,222.8 0,116.79 -40.7,219.24 -112.5,299.75 -105.1,117.75 -277,188.56 -486.5,188.56 -355.2,0 -593.5,-196.16 -593.5,-488.31 0,-9.12 0.2,-18.16 0.7,-27.1 10.6,-205.61 142.4,-360.12 350.2,-426.18 72.3,-22.97 153.8,-35.25 242.6,-35.25 v 0" /><g
         transform="scale(1.0416)"
         id="g36"><path
           id="path38"
           style="fill:#1d1b19;fill-opacity:1;fill-rule:nonzero;stroke:none"
           d="M 14881.5,117.503 V 1279.67 h 715.9 c 76.7,0 143.9,-7.8 202.8,-21.66 1,-0.24 2,-0.43 3,-0.66 0.3,-0.08 0.6,-0.18 0.9,-0.26 363.3,-87.7 407.5,-408.294 407.5,-558.47 0,-5.452 -0.1,-11.145 -0.2,-17.029 -3.2,-141.43 -47.5,-401.972 -316.6,-512.428 -78.6,-32.219 -176.1,-51.66 -297.4,-51.66 z m 1418.8,581.117 c 0,365.04 -197.6,601.77 -537,657.25 -2,0.34 -3.9,0.76 -5.9,1.08 -7.1,1.09 -14.3,1.94 -21.4,2.88 -5.3,0.71 -10.6,1.54 -16,2.16 -5,0.56 -10.1,0.94 -15.1,1.43 -7.7,0.76 -15.4,1.6 -23.3,2.19 -4.4,0.32 -8.9,0.47 -13.3,0.74 -21.7,1.34 -43.9,2.18 -66.7,2.18 h -808.8 V 28.5432 h 808.8 c 193.8,0 352.8,49.1734 470,140.2938 147.5,114.701 228.7,295.932 228.7,529.783" /></g><g
         transform="scale(1.03579)"
         id="g40"><path
           id="path42"
           style="fill:#1d1b19;fill-opacity:1;fill-rule:nonzero;stroke:none"
           d="m 16300,2494.98 v 94.89 h -800.7 -0.1 v -907.52 h 0.1 95 v 426.39 h 665.1 v 95.11 h -0.1 -665 v 291.13 h 705.7" /></g><path
         id="path44"
         style="fill:#1d1b19;fill-opacity:1;fill-rule:nonzero;stroke:none"
         d="M 5276.15,3351.91 V 1742.56 h 103.67 v 1609.35 h 873.14 0.03 v 103.68 h -0.03 -1844.64 -0.03 v -103.68 h 0.03 867.83" /><path
         id="path46"
         style="fill:#1d1b19;fill-opacity:1;fill-rule:nonzero;stroke:none"
         d="m 15007.6,1425.45 h -0.1 V 159.301 L 13703.9,1425.45 h -92.9 v 0 -1395.7195 0 h 92.4 0.1 V 1296.1 l 1304,-1266.3695 h 0.1 92.6 v 0 1395.7195 0 h -92.6" /><path
         id="path48"
         style="fill:#1d1b19;fill-opacity:1;fill-rule:nonzero;stroke:none"
         d="m 8683.5,2589.43 h 1621.1 v -846.87 h 103.9 v 1713.03 h -103.9 V 2692.94 H 8683.5 v 762.65 H 8579.65 V 1742.56 h 103.85 v 846.87" /><path
         id="path50"
         style="fill:#1d1b19;fill-opacity:1;fill-rule:nonzero;stroke:none"
         d="m 822.961,1742.56 h 0.027 l 696.822,1579.47 696.82,-1579.47 h 0.03 110.94 0.03 l 355.55,856.52 355.58,856.51 h -0.03 -112.12 -0.02 l -262.09,-633.36 -393.15,-950.01 -231.14,525.61 -462.23,1051.27 -1.9,4.33 -0.91,2.16 h -0.03 -110.54 -0.03 L 1116.38,2663.89 768.18,1872.22 113.176,3455.59 H 113.113 0.917969 0.886719 L 712.078,1742.56 h 110.883" /><path
         id="path52"
         style="fill:#1d1b19;fill-opacity:1;fill-rule:nonzero;stroke:none"
         d="m 4143.82,1425.45 h -0.03 V 29.7305 h 92.68 V 1425.45 h -0.02 -92.63" /></g></g></svg>